<svg width="274" height="54" viewBox="0 0 274 54" fill="none" xmlns="http://www.w3.org/2000/svg">
<path fill-rule="evenodd" clip-rule="evenodd" d="M24.074 22.3332H18.8691L24.074 8.25001L24.3244 7.44421H24.4496L29.279 22.3245H24.074V22.3332ZM30.2717 0.840503H18.6187L5.10547 33.0096H14.7731L16.6333 28.3765H31.5148L33.1245 33.0096H44.0353L30.2717 0.840503Z" fill="white"/>
<path fill-rule="evenodd" clip-rule="evenodd" d="M55.6257 33.0183H46.0833V0.84927H55.6257V14.0041H55.6972L66.4201 0.84927H77.8227L64.6851 15.7908L78.8154 33.0183H66.7868L55.6972 18.4446H55.6257V33.0183Z" fill="white"/>
<path fill-rule="evenodd" clip-rule="evenodd" d="M91.2018 26.9051V19.3029H94.0546C94.6091 19.3029 95.1099 19.3642 95.6644 19.3642C98.4547 19.5481 101.057 20.2225 101.057 23.1303C101.057 25.9066 98.5084 26.7124 95.6644 26.835C95.1099 26.8963 94.5465 26.8963 93.9921 26.8963H91.2018V26.9051ZM91.2018 6.9625H93.9294C94.5555 6.9625 95.1099 6.96251 95.6644 7.02382C98.0791 7.14643 100.127 7.76825 100.127 10.1768C100.127 12.3401 98.0791 13.1984 95.6644 13.5137C95.0473 13.575 94.4303 13.575 93.8042 13.575H91.2018V6.9625ZM96.7197 32.957C103.043 32.957 110.537 31.3455 110.537 23.6908C110.537 19.8021 108.122 17.4549 103.409 16.5878V16.4652C107.317 15.2916 109.607 13.067 109.607 9.00319C109.607 3.51177 104.706 0.84926 98.0791 0.84926H81.722V32.957H96.7197Z" fill="white"/>
<path fill-rule="evenodd" clip-rule="evenodd" d="M176.681 22.6398C175.626 23.139 174.445 23.4456 173.148 23.4456V10.3607C174.445 10.3607 175.626 10.6059 176.681 11.1052C178.72 12.1561 180.151 14.2581 180.151 16.9732C180.151 19.4956 178.72 21.5362 176.681 22.6485V22.6398ZM163.66 23.4543C162.363 23.4543 161.182 23.1477 160.19 22.6485C158.088 21.5362 156.657 19.4956 156.657 16.9732C156.657 14.1968 158.088 12.2175 160.19 11.1665C161.182 10.676 162.354 10.3695 163.66 10.3695V23.4543ZM189.944 16.9732C189.944 9.18711 184.363 4.99191 176.681 4.01099C175.563 3.87961 174.383 3.81828 173.148 3.81828V0.84927H163.66V3.81828C162.479 3.81828 161.308 3.8796 160.19 4.00222C152.436 4.98314 146.864 9.1871 146.864 16.9644C146.864 24.6104 152.445 28.8757 160.19 29.8654C161.308 29.988 162.479 30.0493 163.66 30.0493V33.0096H173.148V30.0493C174.383 30.0493 175.563 29.9792 176.681 29.8654C184.363 28.8757 189.944 24.6104 189.944 16.9644" fill="white"/>
<path fill-rule="evenodd" clip-rule="evenodd" d="M210.613 6.36727C216.444 6.36727 218.742 11.0529 218.742 16.6757C218.742 21.9219 216.453 26.9229 210.613 26.9229C204.854 26.9229 202.555 21.9219 202.555 16.6757C202.555 11.0529 204.854 6.36727 210.613 6.36727ZM210.613 33.2201C222.266 33.2201 228.473 26.8615 228.473 16.6757C228.473 6.29717 222.391 0 210.613 0C198.897 0 192.762 6.29717 192.762 16.6757C192.762 26.8615 199.023 33.2201 210.613 33.2201Z" fill="white"/>
<path fill-rule="evenodd" clip-rule="evenodd" d="M244.98 15.5456C244.426 15.6682 243.871 15.6682 243.308 15.6682H240.822V6.96251H243.308C243.871 6.96251 244.426 7.02383 244.98 7.08514C247.404 7.39168 249.13 8.56526 249.13 11.219C249.13 13.9954 247.395 15.2303 244.98 15.5456ZM244.98 0.910584C244.238 0.849277 243.433 0.84927 242.628 0.84927H231.342V33.0271H240.822V21.7289H244.98C253.53 21.6063 258.619 17.7702 258.619 11.4205C258.619 4.69415 254.281 1.35721 244.98 0.919298" fill="white"/>
<path fill-rule="evenodd" clip-rule="evenodd" d="M124.301 22.3332L129.506 8.38135L129.819 7.45297H129.881L134.719 22.3332H124.301ZM149.404 33.0183L135.703 0.84927H124.122L110.537 33.0183H120.205L122.127 28.3852H136.937L138.61 33.0183H149.404Z" fill="white"/>
<path fill-rule="evenodd" clip-rule="evenodd" d="M263.591 3.8709C263.466 3.99352 263.341 4.05479 263.162 4.05479H262.536V2.94247H263.162C263.35 2.99502 263.475 3.06511 263.6 3.12642C263.663 3.24903 263.716 3.37163 263.716 3.49425C263.716 3.61686 263.654 3.73953 263.6 3.8709H263.591ZM264.405 3.43299C264.405 3.31037 264.405 3.18776 264.342 2.99507C264.28 2.81115 264.163 2.62718 263.913 2.50456C263.716 2.38195 263.475 2.32067 263.162 2.25936H261.856V6.0254H262.545V4.60656H262.607L263.171 5.41231L263.546 6.0254H264.414L263.359 4.60656C263.725 4.60656 263.985 4.48395 264.172 4.22997C264.36 4.04604 264.423 3.73953 264.423 3.43299H264.405ZM265.469 5.52617C265.228 5.96408 264.852 6.27063 264.423 6.51586C264.047 6.69978 263.618 6.82239 263.18 6.89246H262.992C262.5 6.89246 261.999 6.76985 261.624 6.51586C261.194 6.27063 260.819 5.89402 260.577 5.52617C260.327 5.09702 260.202 4.65911 260.202 4.10734C260.202 3.60812 260.327 3.17897 260.577 2.74982C260.828 2.32066 261.194 2.00536 261.633 1.76013C262.008 1.5149 262.5 1.3923 263.001 1.3923H263.189C263.627 1.3923 264.056 1.5149 264.432 1.76013C264.861 2.00536 265.237 2.32066 265.478 2.74982C265.729 3.11766 265.854 3.61687 265.854 4.10734C265.854 4.65911 265.729 5.09702 265.478 5.52617H265.469ZM266.042 2.4433C265.729 1.88277 265.299 1.5149 264.798 1.20836C264.298 0.893059 263.743 0.779211 263.189 0.779211C263.126 0.717903 263.063 0.717896 263.001 0.717896C262.384 0.779204 261.82 0.901826 261.266 1.21712C260.774 1.52366 260.336 1.89149 260.032 2.45201C259.728 2.95123 259.602 3.50303 259.602 4.12487C259.602 4.73795 259.728 5.351 260.041 5.85022C260.354 6.34944 260.783 6.77863 261.284 7.09393C261.847 7.40047 262.402 7.52308 263.019 7.52308H263.207C263.761 7.52308 264.324 7.3304 264.816 7.09393C265.317 6.78739 265.746 6.34944 266.059 5.85022C266.372 5.351 266.489 4.73795 266.489 4.12487C266.489 3.50303 266.372 2.95123 266.059 2.45201" fill="white"/>
<path d="M39.0919 50.5754V53.3333H41.5316V50.5754C45.8688 50.5754 48.1579 49.5135 48.1579 46.6671C48.1579 43.9239 45.8688 42.7588 41.5316 42.7588V39.6174H39.0919V42.7588C34.7547 42.7588 32.4807 43.9239 32.4807 46.6671C32.4807 49.5135 34.7547 50.5754 39.0919 50.5754ZM39.0919 44.3369V48.9973C36.3209 48.9973 34.9204 48.3927 34.9204 46.8441V46.4754C34.9204 44.8383 36.3209 44.3369 39.0919 44.3369ZM45.7182 46.8441C45.7182 48.3927 44.3026 48.9973 41.5316 48.9973V44.3369C44.3026 44.3369 45.7182 44.8383 45.7182 46.4754V46.8441Z" fill="white"/>
<path d="M49.8911 42.9506V50.3837H52.4965L58.6107 45.1038V50.3837H61.0353V42.9506H58.43L52.3158 48.2304V42.9506H49.8911Z" fill="white"/>
<path d="M62.4607 50.3837H63.0782C65.6684 50.3837 66.5118 49.3218 66.5118 46.1952V44.5286H71.346V50.3837H73.8007V42.9506H64.2679V46.0624C64.2679 48.0682 63.8161 48.5107 62.7469 48.5107H62.4607V50.3837Z" fill="white"/>
<path d="M76.0545 50.3837H83.7952C85.9186 50.3837 86.9577 49.4398 86.9577 47.7732C86.9577 46.1214 85.9186 45.266 83.7952 45.266H78.5092V42.9506H76.0545V50.3837ZM84.518 47.9207C84.518 48.5844 84.1114 48.8794 83.2078 48.8794H78.5092V46.7704H83.2078C84.1114 46.7704 84.518 47.0211 84.518 47.6553V47.9207Z" fill="white"/>
<path d="M90.3963 44.5286V50.3837H92.851V44.5286H97.0075V42.9506H86.2548V44.5286H90.3963Z" fill="white"/>
<path d="M108.184 46.8883C108.184 48.5254 106.949 48.9973 104.509 48.9973C102.024 48.9973 100.819 48.4959 100.819 46.8883V46.4606C100.819 44.8678 102.024 44.3369 104.509 44.3369C106.949 44.3369 108.184 44.8383 108.184 46.4606V46.8883ZM98.3646 42.9506V53.3333H100.819V48.9678C101.587 50.074 103.078 50.5754 105.322 50.5754C108.665 50.5754 110.638 49.4545 110.638 46.6671C110.638 43.8797 108.665 42.7588 105.322 42.7588C103.003 42.7588 101.497 43.3193 100.744 44.4991V42.9506H98.3646Z" fill="white"/>
<path d="M112.38 50.3837H120.121C122.244 50.3837 123.283 49.4398 123.283 47.7732C123.283 46.1214 122.244 45.266 120.121 45.266H114.835V42.9506H112.38V50.3837ZM120.844 47.9207C120.844 48.5844 120.437 48.8794 119.534 48.8794H114.835V46.7704H119.534C120.437 46.7704 120.844 47.0211 120.844 47.6553V47.9207ZM124.217 42.9506V50.3837H126.672V42.9506H124.217Z" fill="white"/>
<path d="M132.095 52.4484H134.339V50.3837H143.013V52.4484H145.257V48.8056H143.887V42.9506H133.902V45.679C133.902 47.1243 133.616 48.0977 133.179 48.8351H132.095V52.4484ZM141.447 44.5286V48.8056H135.468C135.815 48.0977 136.116 47.1243 136.116 45.679V44.5286H141.447Z" fill="white"/>
<path d="M145.951 50.3837H146.568C149.159 50.3837 150.002 49.3218 150.002 46.1952V44.5286H154.836V50.3837H157.291V42.9506H147.758V46.0624C147.758 48.0682 147.306 48.5107 146.237 48.5107H145.951V50.3837Z" fill="white"/>
<path d="M167.707 47.906V50.3837H170.162V42.9506H162.24C160.102 42.9506 159.093 43.8944 159.093 45.4283C159.093 46.5344 159.665 47.316 161.096 47.611L159.033 50.3837H161.728L163.566 47.906H167.707ZM167.707 44.4401V46.4017H162.737C161.954 46.4017 161.533 46.1362 161.533 45.5757V45.3398C161.533 44.7793 161.954 44.4401 162.737 44.4401H167.707Z" fill="white"/>
<path d="M176.516 42.9506V50.3837H184.694C186.787 50.3837 187.555 49.6758 187.555 48.2599C187.555 47.4045 187.043 46.6671 185.643 46.4164C186.862 46.1804 187.239 45.4873 187.239 44.7203C187.239 43.6585 186.471 42.9506 184.332 42.9506H176.516ZM185.1 48.2009C185.1 48.7614 184.739 49.0121 183.941 49.0121H178.971V47.2128H183.941C184.739 47.2128 185.1 47.4783 185.1 47.9945V48.2009ZM184.829 45.1923C184.829 45.62 184.603 45.915 183.775 45.915H178.971V44.3221H183.82C184.603 44.3221 184.829 44.5729 184.829 45.0006V45.1923Z" fill="white"/>
<path d="M198.648 46.8736C198.648 48.4959 197.443 48.9973 194.958 48.9973C192.488 48.9973 191.268 48.4959 191.268 46.8883V46.4606C191.268 44.8383 192.488 44.3369 194.958 44.3369C197.443 44.3369 198.648 44.8383 198.648 46.4606V46.8736ZM188.829 46.6671C188.829 49.6463 190.997 50.5754 194.958 50.5754C198.949 50.5754 201.087 49.6463 201.087 46.6671C201.087 43.7322 198.949 42.7588 194.958 42.7588C190.997 42.7588 188.829 43.7322 188.829 46.6671Z" fill="white"/>
<path d="M201.731 52.4484H203.975V50.3837H212.65V52.4484H214.893V48.8056H213.523V42.9506H203.538V45.679C203.538 47.1243 203.252 48.0977 202.816 48.8351H201.731V52.4484ZM211.083 44.5286V48.8056H205.105C205.451 48.0977 205.752 47.1243 205.752 45.679V44.5286H211.083Z" fill="white"/>
<path d="M216.416 50.3837H224.156C226.28 50.3837 227.319 49.4398 227.319 47.7732C227.319 46.1214 226.28 45.266 224.156 45.266H218.871V42.9506H216.416V50.3837ZM224.879 47.9207C224.879 48.5844 224.473 48.8794 223.569 48.8794H218.871V46.7704H223.569C224.473 46.7704 224.879 47.0211 224.879 47.6553V47.9207ZM228.253 42.9506V50.3837H230.707V42.9506H228.253Z" fill="white"/>
</svg>